<svg width="221" height="40" viewBox="0 0 221 40" fill="none" xmlns="http://www.w3.org/2000/svg">
<path d="M105.109 3.73224H105.805V3.03604H105.109V3.73224ZM105.109 29.8423V30.5385H105.805V29.8423H105.109ZM100.184 29.8423H99.4876V30.5385H100.184V29.8423ZM100.184 13.1279L99.4889 13.0845L99.4876 13.1062V13.1279H100.184ZM100.421 9.33008L101.116 9.37351L99.7393 9.18933L100.421 9.33008ZM99.531 13.6422L100.187 13.8764L100.203 13.8306L100.213 13.7829L99.531 13.6422ZM94.4079 27.9829V28.6791H94.8985L95.0635 28.2171L94.4079 27.9829ZM89.5419 27.9829L88.886 28.2163L89.0507 28.6791H89.5419V27.9829ZM84.4386 13.6422L83.7562 13.7799L83.766 13.8287L83.7827 13.8756L84.4386 13.6422ZM83.5683 9.33008L84.2507 9.19234L82.8732 9.3699L83.5683 9.33008ZM83.7859 13.1279H84.4821V13.108L84.4809 13.0881L83.7859 13.1279ZM83.7859 29.8423V30.5385H84.4821V29.8423H83.7859ZM78.8408 29.8423H78.1446V30.5385H78.8408V29.8423ZM78.8408 3.73224V3.03604H78.1446V3.73224H78.8408ZM85.6848 3.73224L86.3477 3.5195L86.1925 3.03604H85.6848V3.73224ZM91.6584 22.3455L92.3439 22.2237L92.3357 22.1775L92.3213 22.1328L91.6584 22.3455ZM91.9749 24.1258L91.2895 24.2476L92.6604 24.2476L91.9749 24.1258ZM92.2914 22.3455L91.6287 22.1322L91.6142 22.1771L91.606 22.2237L92.2914 22.3455ZM98.2848 3.73224V3.03604H97.7776L97.6222 3.51886L98.2848 3.73224ZM105.109 3.73224H104.413V29.8423H105.109H105.805V3.73224H105.109ZM105.109 29.8423V29.1461H100.184V29.8423V30.5385H105.109V29.8423ZM100.184 29.8423H100.88V13.1279H100.184H99.4876V29.8423H100.184ZM100.184 13.1279L100.879 13.1713L101.116 9.37351L100.421 9.33008L99.7263 9.28665L99.4889 13.0845L100.184 13.1279ZM100.421 9.33008L99.7393 9.18933L98.8492 13.5014L99.531 13.6422L100.213 13.7829L101.103 9.47082L100.421 9.33008ZM99.531 13.6422L98.8754 13.408L93.7523 27.7487L94.4079 27.9829L95.0635 28.2171L100.187 13.8764L99.531 13.6422ZM94.4079 27.9829V27.2867H89.5419V27.9829V28.6791H94.4079V27.9829ZM89.5419 27.9829L90.1978 27.7495L85.0945 13.4088L84.4386 13.6422L83.7827 13.8756L88.886 28.2163L89.5419 27.9829ZM84.4386 13.6422L85.121 13.5045L84.2507 9.19234L83.5683 9.33008L82.8858 9.46782L83.7562 13.7799L84.4386 13.6422ZM83.5683 9.33008L82.8732 9.3699L83.0908 13.1677L83.7859 13.1279L84.4809 13.0881L84.2633 9.29026L83.5683 9.33008ZM83.7859 13.1279H83.0897V29.8423H83.7859H84.4821V13.1279H83.7859ZM83.7859 29.8423V29.1461H78.8408V29.8423V30.5385H83.7859V29.8423ZM78.8408 29.8423H79.537V3.73224H78.8408H78.1446V29.8423H78.8408ZM78.8408 3.73224V4.42844H85.6848V3.73224V3.03604H78.8408V3.73224ZM85.6848 3.73224L85.0219 3.94499L90.9955 22.5583L91.6584 22.3455L92.3213 22.1328L86.3477 3.5195L85.6848 3.73224ZM91.6584 22.3455L90.973 22.4674L91.2895 24.2476L91.9749 24.1258L92.6604 24.0039L92.3439 22.2237L91.6584 22.3455ZM91.9749 24.1258L92.6604 24.2476L92.9769 22.4674L92.2914 22.3455L91.606 22.2237L91.2895 24.0039L91.9749 24.1258ZM92.2914 22.3455L92.9541 22.5589L98.9475 3.94563L98.2848 3.73224L97.6222 3.51886L91.6287 22.1322L92.2914 22.3455ZM98.2848 3.73224V4.42844H105.109V3.73224V3.03604H98.2848V3.73224ZM111.857 22.84V22.1438H111.122L111.161 22.8773L111.857 22.84ZM113.993 26.1829L113.686 26.8081L113.691 26.8104L113.993 26.1829ZM118.701 26.3609L118.488 25.6979L118.485 25.6991L118.701 26.3609ZM120.362 25.5895L120.752 26.1662L120.756 26.1637L120.362 25.5895ZM121.391 24.6796L121.968 24.2909L121.43 23.4906L120.84 24.2539L121.391 24.6796ZM123.468 27.7654L124.011 28.2003L124.331 27.8009L124.045 27.3766L123.468 27.7654ZM121.984 29.0511L122.355 29.64L122.359 29.6379L121.984 29.0511ZM119.65 29.961L119.49 29.2833L119.479 29.2861L119.65 29.961ZM111.441 29.2687L111.762 28.6509L111.441 29.2687ZM108.296 26.2423L108.901 25.8975L108.296 26.2423ZM108.177 17.262L108.792 17.5886L108.794 17.586L108.177 17.262ZM111.105 14.2356L110.76 13.6311L110.757 13.6327L111.105 14.2356ZM120.164 14.1169L119.837 14.7316L119.845 14.7357L120.164 14.1169ZM123.072 16.9653L122.461 17.2996L123.072 16.9653ZM124.081 22.2071L123.385 22.1793L123.385 22.1932V22.2071H124.081ZM124.041 22.84V23.5362H124.585L124.717 23.0089L124.041 22.84ZM119.393 19.7345V20.4307H120.111L120.089 19.7128L119.393 19.7345ZM118.997 18.3697L118.371 18.6743L118.375 18.681L118.378 18.6877L118.997 18.3697ZM117.87 17.1235L117.484 17.7028L117.87 17.1235ZM113.696 17.1037L113.34 16.5055L113.334 16.5093L113.696 17.1037ZM112.47 18.3301L113.071 18.6809L113.075 18.6738L112.47 18.3301ZM111.995 19.7345L111.301 19.6751L111.237 20.4307H111.995V19.7345ZM111.857 22.84L111.161 22.8773C111.207 23.7212 111.435 24.4948 111.857 25.1822L112.45 24.8181L113.043 24.454C112.753 23.9809 112.586 23.4358 112.552 22.8028L111.857 22.84ZM112.45 24.8181L111.857 25.1822C112.289 25.886 112.908 26.4263 113.686 26.8081L113.993 26.1829L114.299 25.5578C113.733 25.2802 113.324 24.9106 113.043 24.454L112.45 24.8181ZM113.993 26.1829L113.691 26.8104C114.491 27.1951 115.417 27.3736 116.446 27.3736V26.6774V25.9812C115.575 25.9812 114.866 25.8301 114.295 25.5555L113.993 26.1829ZM116.446 26.6774V27.3736C117.358 27.3736 118.185 27.2616 118.917 27.0228L118.701 26.3609L118.485 25.6991C117.924 25.8823 117.248 25.9812 116.446 25.9812V26.6774ZM118.701 26.3609L118.913 27.024C119.619 26.7982 120.236 26.5153 120.752 26.1662L120.362 25.5895L119.972 25.0129C119.591 25.2704 119.101 25.5018 118.488 25.6979L118.701 26.3609ZM120.362 25.5895L120.756 26.1637C121.249 25.8254 121.656 25.4746 121.942 25.1053L121.391 24.6796L120.84 24.2539C120.677 24.4649 120.398 24.7207 119.968 25.0153L120.362 25.5895ZM121.391 24.6796L120.813 25.0684L122.89 28.1541L123.468 27.7654L124.045 27.3766L121.968 24.2909L121.391 24.6796ZM123.468 27.7654L122.924 27.3304C122.612 27.7199 122.18 28.1001 121.61 28.4642L121.984 29.0511L122.359 29.6379C123.028 29.2109 123.584 28.7339 124.011 28.2003L123.468 27.7654ZM121.984 29.0511L121.613 28.4621C121.09 28.7917 120.39 29.071 119.49 29.2834L119.65 29.961L119.81 30.6385C120.809 30.4026 121.665 30.0752 122.355 29.64L121.984 29.0511ZM119.65 29.961L119.479 29.2861C118.618 29.5044 117.506 29.6208 116.129 29.6208V30.317V31.0132C117.574 31.0132 118.81 30.8922 119.821 30.6358L119.65 29.961ZM116.129 30.317V29.6208C114.441 29.6208 112.992 29.29 111.762 28.6509L111.441 29.2687L111.12 29.8864C112.58 30.6451 114.257 31.0132 116.129 31.0132V30.317ZM111.441 29.2687L111.762 28.6509C110.536 28.0139 109.586 27.0999 108.901 25.8975L108.296 26.2423L107.691 26.587C108.509 28.022 109.656 29.1256 111.12 29.8864L111.441 29.2687ZM108.296 26.2423L108.901 25.8975C108.22 24.7029 107.865 23.2575 107.865 21.5345H107.169H106.472C106.472 23.4512 106.869 25.1442 107.691 26.587L108.296 26.2423ZM107.169 21.5345H107.865C107.865 20.054 108.179 18.7438 108.792 17.5886L108.177 17.262L107.563 16.9354C106.831 18.312 106.472 19.8503 106.472 21.5345H107.169ZM108.177 17.262L108.794 17.586C109.404 16.426 110.285 15.5128 111.453 14.8385L111.105 14.2356L110.757 13.6327C109.366 14.4354 108.296 15.5397 107.561 16.938L108.177 17.262ZM111.105 14.2356L111.45 14.8401C112.617 14.1733 114.042 13.8241 115.753 13.8241V13.1279V12.4317C113.851 12.4317 112.177 12.8209 110.76 13.6311L111.105 14.2356ZM115.753 13.1279V13.8241C117.364 13.8241 118.718 14.136 119.837 14.7316L120.164 14.1169L120.491 13.5023C119.132 12.7792 117.545 12.4317 115.753 12.4317V13.1279ZM120.164 14.1169L119.845 14.7357C120.973 15.3173 121.841 16.1669 122.461 17.2996L123.072 16.9653L123.683 16.631C122.931 15.2582 121.861 14.2089 120.484 13.4982L120.164 14.1169ZM123.072 16.9653L122.461 17.2996C123.078 18.4262 123.404 19.8342 123.404 21.5543H124.101H124.797C124.797 19.6612 124.438 18.0099 123.683 16.631L123.072 16.9653ZM124.101 21.5543H123.404C123.404 21.6434 123.399 21.8468 123.385 22.1793L124.081 22.2071L124.777 22.2349C124.79 21.908 124.797 21.6762 124.797 21.5543H124.101ZM124.081 22.2071H123.385C123.385 22.3572 123.382 22.4734 123.376 22.5593C123.37 22.6541 123.363 22.6819 123.366 22.6712L124.041 22.84L124.717 23.0089C124.767 22.807 124.777 22.5106 124.777 22.2071H124.081ZM124.041 22.84V22.1438H111.857V22.84V23.5362H124.041V22.84ZM119.393 19.7345L120.089 19.7128C120.072 19.1615 119.901 18.605 119.617 18.0517L118.997 18.3697L118.378 18.6877C118.595 19.1102 118.688 19.4636 118.697 19.7563L119.393 19.7345ZM118.997 18.3697L119.623 18.0651C119.325 17.4512 118.859 16.946 118.256 16.5443L117.87 17.1235L117.484 17.7028C117.91 17.9868 118.195 18.3124 118.371 18.6743L118.997 18.3697ZM117.87 17.1235L118.256 16.5443C117.591 16.1009 116.756 15.913 115.813 15.913V16.6092V17.3054C116.584 17.3054 117.12 17.4604 117.484 17.7028L117.87 17.1235ZM115.813 16.6092V15.913C114.87 15.913 114.032 16.0939 113.34 16.5055L113.696 17.1037L114.052 17.702C114.469 17.4542 115.041 17.3054 115.813 17.3054V16.6092ZM113.696 17.1037L113.334 16.5093C112.705 16.8925 112.207 17.383 111.864 17.9865L112.47 18.3301L113.075 18.6738C113.287 18.3014 113.606 17.9743 114.059 17.6982L113.696 17.1037ZM112.47 18.3301L111.868 17.9793C111.549 18.5267 111.351 19.0934 111.301 19.6751L111.995 19.7345L112.689 19.794C112.718 19.4526 112.837 19.083 113.071 18.6809L112.47 18.3301ZM111.995 19.7345V20.4307H119.393V19.7345V19.0383H111.995V19.7345ZM130.183 29.8423V30.5385H130.88V29.8423H130.183ZM125.159 29.8423H124.463V30.5385H125.159V29.8423ZM125.159 13.6026V12.9064H124.463V13.6026H125.159ZM130.183 13.6026H130.88V12.9064H130.183V13.6026ZM130.183 16.2334V16.9296H130.88V16.2334H130.183ZM130.085 16.2334L129.416 16.0385L129.156 16.9296H130.085V16.2334ZM130.836 15.0268L130.31 14.5713L130.303 14.5797L130.836 15.0268ZM132.577 13.7213L132.897 14.3396L132.906 14.335L132.577 13.7213ZM137.285 13.4642L137.043 14.1172L137.052 14.1203L137.06 14.1232L137.285 13.4642ZM138.61 14.0971L139.237 14.3988L139.477 13.8995L139.045 13.5535L138.61 14.0971ZM136.632 18.2114L136.091 18.6505L136.784 19.5024L137.259 18.5131L136.632 18.2114ZM135.663 17.5587L135.358 18.185L135.365 18.1882L135.663 17.5587ZM131.845 17.9147L132.283 18.4559L132.291 18.4496L131.845 17.9147ZM130.599 19.5763L131.239 19.8505L131.241 19.8459L130.599 19.5763ZM130.183 29.8423V29.1461H125.159V29.8423V30.5385H130.183V29.8423ZM125.159 29.8423H125.855V13.6026H125.159H124.463V29.8423H125.159ZM125.159 13.6026V14.2988H130.183V13.6026V12.9064H125.159V13.6026ZM130.183 13.6026H129.487V16.2334H130.183H130.88V13.6026H130.183ZM130.183 16.2334V15.5372H130.085V16.2334V16.9296H130.183V16.2334ZM130.085 16.2334L130.753 16.4284C130.803 16.2553 130.976 15.944 131.37 15.4739L130.836 15.0268L130.303 14.5797C129.879 15.0855 129.55 15.5786 129.416 16.0385L130.085 16.2334ZM130.836 15.0268L131.363 15.4822C131.713 15.0775 132.215 14.6925 132.897 14.3395L132.577 13.7213L132.257 13.1031C131.461 13.515 130.803 14.0003 130.31 14.5714L130.836 15.0268ZM132.577 13.7213L132.906 14.335C133.521 14.0052 134.293 13.8241 135.247 13.8241V13.1279V12.4317C134.118 12.4317 133.109 12.6462 132.248 13.1076L132.577 13.7213ZM135.247 13.1279V13.8241C135.93 13.8241 136.525 13.9258 137.043 14.1172L137.285 13.4642L137.526 12.8111C136.831 12.5542 136.068 12.4317 135.247 12.4317V13.1279ZM137.285 13.4642L137.06 14.1232C137.661 14.3279 138.009 14.5078 138.175 14.6408L138.61 14.0971L139.045 13.5535C138.684 13.2645 138.147 13.0224 137.509 12.8051L137.285 13.4642ZM138.61 14.0971L137.982 13.7955L136.004 17.9098L136.632 18.2114L137.259 18.5131L139.237 14.3988L138.61 14.0971ZM136.632 18.2114L137.172 17.7724C136.899 17.4357 136.457 17.1639 135.96 16.9292L135.663 17.5587L135.365 18.1882C135.818 18.4018 136.022 18.5652 136.091 18.6505L136.632 18.2114ZM135.663 17.5587L135.967 16.9325C135.383 16.6487 134.69 16.5262 133.922 16.5262V17.2224V17.9186C134.552 17.9186 135.02 18.0203 135.358 18.1849L135.663 17.5587ZM133.922 17.2224V16.5262C132.954 16.5262 132.097 16.7985 131.399 17.3799L131.845 17.9147L132.291 18.4496C132.701 18.1079 133.228 17.9186 133.922 17.9186V17.2224ZM131.845 17.9147L131.407 17.3736C130.763 17.8946 130.278 18.5418 129.957 19.3067L130.599 19.5763L131.241 19.8459C131.473 19.2921 131.819 18.8316 132.283 18.4559L131.845 17.9147ZM130.599 19.5763L129.959 19.302C129.653 20.0147 129.487 20.7151 129.487 21.3961H130.183H130.88C130.88 20.943 130.99 20.4302 131.239 19.8505L130.599 19.5763ZM130.183 21.3961H129.487V29.8423H130.183H130.88V21.3961H130.183ZM148.585 25.8862L148.914 26.4997L148.585 25.8862ZM149.653 25.2335L150.23 24.8442L149.796 24.2004L149.203 24.702L149.653 25.2335ZM151.987 28.695L152.417 29.2425L152.926 28.8425L152.564 28.3058L151.987 28.695ZM150.958 29.3082L151.283 29.9243L150.958 29.3082ZM149.04 30.0005L148.868 29.3257L148.854 29.3294L149.04 30.0005ZM141.8 29.2884L141.481 29.9075L141.486 29.9099L141.8 29.2884ZM138.576 26.3214L137.979 26.6805L137.984 26.6876L138.576 26.3214ZM138.576 17.1037L137.984 16.7375L137.981 16.742L138.576 17.1037ZM141.8 14.1565L142.114 14.778L141.8 14.1565ZM149 13.4444L148.812 14.1147L148.815 14.1155L149 13.4444ZM150.919 14.1763L150.589 14.7894L150.601 14.7957L150.919 14.1763ZM151.987 14.829L152.561 15.2234L152.913 14.7105L152.443 14.3029L151.987 14.829ZM149.593 18.3104L149.07 18.7688L149.66 19.4431L150.167 18.7048L149.593 18.3104ZM149.059 17.8752L149.459 17.3048V17.3048L149.059 17.8752ZM148.011 17.3609L147.767 18.0128L147.773 18.0152L148.011 17.3609ZM144.411 17.6972L144.062 17.0949L144.056 17.098L144.411 17.6972ZM142.829 19.2994L142.231 18.9429L142.829 19.2994ZM142.829 24.1455L142.228 24.4971L142.231 24.502L142.829 24.1455ZM144.411 25.7478L144.056 26.3469L144.062 26.35L144.411 25.7478ZM146.488 26.3214V27.0176C147.417 27.0176 148.24 26.8614 148.914 26.4997L148.585 25.8862L148.256 25.2728C147.848 25.4913 147.273 25.6252 146.488 25.6252V26.3214ZM148.585 25.8862L148.914 26.4997C149.448 26.2131 149.867 25.9641 150.103 25.7649L149.653 25.2335L149.203 24.702C149.096 24.793 148.803 24.9792 148.256 25.2728L148.585 25.8862ZM149.653 25.2335L149.076 25.6227L151.41 29.0842L151.987 28.695L152.564 28.3058L150.23 24.8442L149.653 25.2335ZM151.987 28.695L151.557 28.1476C151.427 28.2494 151.135 28.4283 150.634 28.6921L150.958 29.3082L151.283 29.9243C151.784 29.6606 152.177 29.4307 152.417 29.2425L151.987 28.695ZM150.958 29.3082L150.634 28.6921C150.197 28.9223 149.613 29.1364 148.868 29.3258L149.04 30.0005L149.211 30.6753C150.022 30.4691 150.718 30.2216 151.283 29.9243L150.958 29.3082ZM149.04 30.0005L148.854 29.3294C148.163 29.5203 147.35 29.6208 146.409 29.6208V30.317V31.0132C147.446 31.0132 148.387 30.9028 149.225 30.6717L149.04 30.0005ZM146.409 30.317V29.6208C144.79 29.6208 143.363 29.2976 142.114 28.6669L141.8 29.2884L141.486 29.9099C142.954 30.6507 144.6 31.0132 146.409 31.0132V30.317ZM141.8 29.2884L142.119 28.6694C140.871 28.0274 139.892 27.125 139.168 25.9551L138.576 26.3214L137.984 26.6876C138.843 28.0761 140.013 29.1517 141.481 29.9075L141.8 29.2884ZM138.576 26.3214L139.172 25.9623C138.47 24.7966 138.105 23.3893 138.105 21.7126H137.409H136.713C136.713 23.5963 137.125 25.2616 137.979 26.6805L138.576 26.3214ZM137.409 21.7126H138.105C138.105 20.0214 138.471 18.6158 139.171 17.4655L138.576 17.1037L137.981 16.742C137.125 18.15 136.713 19.8169 136.713 21.7126H137.409ZM138.576 17.1037L139.168 17.47C139.891 16.3013 140.869 15.4066 142.114 14.778L141.8 14.1565L141.486 13.535C140.015 14.2778 138.843 15.348 137.984 16.7375L138.576 17.1037ZM141.8 14.1565L142.114 14.778C143.363 14.1473 144.79 13.8241 146.409 13.8241V13.1279V12.4317C144.6 12.4317 142.954 12.7942 141.486 13.535L141.8 14.1565ZM146.409 13.1279V13.8241C147.336 13.8241 148.135 13.9245 148.812 14.1147L149 13.4444L149.188 12.7741C148.362 12.5423 147.433 12.4317 146.409 12.4317V13.1279ZM149 13.4444L148.815 14.1155C149.546 14.3172 150.133 14.5441 150.589 14.7892L150.919 14.1763L151.249 13.5633C150.676 13.2546 149.984 12.9936 149.185 12.7733L149 13.4444ZM150.919 14.1763L150.601 14.7957C151.111 15.057 151.401 15.2428 151.531 15.3551L151.987 14.829L152.443 14.3029C152.177 14.0723 151.756 13.823 151.236 13.5568L150.919 14.1763ZM151.987 14.829L151.413 14.4346L149.02 17.9159L149.593 18.3104L150.167 18.7048L152.561 15.2234L151.987 14.829ZM149.593 18.3104L150.117 17.8519C149.965 17.6773 149.725 17.491 149.459 17.3048L149.059 17.8752L148.66 18.4455C148.922 18.6286 149.038 18.7324 149.07 18.7688L149.593 18.3104ZM149.059 17.8752L149.459 17.3048C149.129 17.0737 148.719 16.8774 148.249 16.7066L148.011 17.3609L147.773 18.0152C148.174 18.1609 148.463 18.3074 148.66 18.4455L149.059 17.8752ZM148.011 17.3609L148.256 16.709C147.735 16.5138 147.14 16.4273 146.488 16.4273V17.1235V17.8197C147.023 17.8197 147.443 17.8915 147.767 18.0128L148.011 17.3609ZM146.488 17.1235V16.4273C145.634 16.4273 144.822 16.6542 144.062 17.0949L144.411 17.6972L144.76 18.2994C145.319 17.9753 145.892 17.8197 146.488 17.8197V17.1235ZM144.411 17.6972L144.056 17.098C143.304 17.5435 142.695 18.1637 142.231 18.9429L142.829 19.2994L143.427 19.6559C143.78 19.0636 144.226 18.6157 144.766 18.2963L144.411 17.6972ZM142.829 19.2994L142.231 18.9429C141.748 19.7523 141.519 20.6839 141.519 21.7126H142.215H142.912C142.912 20.8951 143.092 20.2179 143.427 19.6559L142.829 19.2994ZM142.215 21.7126H141.519C141.519 22.7416 141.748 23.6773 142.228 24.497L142.829 24.1455L143.43 23.7941C143.091 23.216 142.912 22.5297 142.912 21.7126H142.215ZM142.829 24.1455L142.231 24.502C142.695 25.2812 143.304 25.9015 144.056 26.3469L144.411 25.7478L144.766 25.1486C144.226 24.8292 143.78 24.3813 143.427 23.7891L142.829 24.1455ZM144.411 25.7478L144.062 26.35C144.822 26.7907 145.634 27.0176 146.488 27.0176V26.3214V25.6252C145.892 25.6252 145.319 25.4697 144.76 25.1455L144.411 25.7478ZM165.611 29.8423H164.914V30.5385H165.611V29.8423ZM165.611 27.0137H166.307L164.966 26.7501L165.611 27.0137ZM164.701 28.2401L165.212 28.7128L164.701 28.2401ZM162.723 29.684L163.042 30.3027L163.046 30.3008L162.723 29.684ZM155.701 29.2093L155.331 29.7993L155.336 29.8022L155.701 29.2093ZM152.872 26.1434L152.253 26.4622L152.257 26.4697L152.872 26.1434ZM152.872 17.3411L152.256 17.0174L152.255 17.0197L152.872 17.3411ZM155.701 14.2554L155.331 13.6654L155.701 14.2554ZM162.644 13.6818L162.349 14.3128L162.362 14.3184L162.644 13.6818ZM164.582 14.9477L164.09 15.44L164.096 15.4466L164.103 15.4531L164.582 14.9477ZM165.551 16.2334L164.9 16.4803L166.247 16.2334H165.551ZM165.551 13.6026V12.9064H164.855V13.6026H165.551ZM170.536 13.6026H171.232V12.9064H170.536V13.6026ZM170.536 29.8423V30.5385H171.232V29.8423H170.536ZM157.402 24.1455L156.801 24.4971L156.804 24.502L157.402 24.1455ZM159.024 25.7478L159.368 25.1426L159.024 25.7478ZM163.435 25.7478L163.789 26.347L163.798 26.3415L163.435 25.7478ZM164.958 24.1258L164.347 23.7916L164.345 23.7957L164.958 24.1258ZM164.958 19.3587L164.342 19.6839L164.346 19.6909L164.35 19.6978L164.958 19.3587ZM163.435 17.7169L163.798 17.1232L163.435 17.7169ZM159.024 17.7169L159.368 18.3222L159.377 18.317L159.024 17.7169ZM157.402 19.3389L158 19.6954L158.003 19.6904L157.402 19.3389ZM165.611 29.8423H166.307V27.0137H165.611H164.914V29.8423H165.611ZM165.611 27.0137L164.966 26.7501C164.899 26.9133 164.675 27.2423 164.19 27.7673L164.701 28.2401L165.212 28.7128C165.702 28.1829 166.084 27.6943 166.255 27.2773L165.611 27.0137ZM164.701 28.2401L164.19 27.7673C163.769 28.2217 163.18 28.6584 162.4 29.0673L162.723 29.684L163.046 30.3008C163.927 29.8393 164.656 29.3134 165.212 28.7128L164.701 28.2401ZM162.723 29.684L162.403 29.0654C161.703 29.427 160.854 29.6208 159.835 29.6208V30.317V31.0132C161.031 31.0132 162.107 30.785 163.042 30.3027L162.723 29.684ZM159.835 30.317V29.6208C158.394 29.6208 157.145 29.2804 156.066 28.6164L155.701 29.2093L155.336 29.8022C156.657 30.6151 158.164 31.0132 159.835 31.0132V30.317ZM155.701 29.2093L156.07 28.6193C154.977 27.9347 154.118 27.0052 153.487 25.817L152.872 26.1434L152.257 26.4697C152.998 27.8662 154.024 28.9806 155.331 29.7993L155.701 29.2093ZM152.872 26.1434L153.491 25.8245C152.875 24.6284 152.559 23.2694 152.559 21.7323H151.863H151.167C151.167 23.4657 151.524 25.0473 152.253 26.4622L152.872 26.1434ZM151.863 21.7323H152.559C152.559 20.1952 152.875 18.8439 153.49 17.6625L152.872 17.3411L152.255 17.0197C151.524 18.4229 151.167 19.9992 151.167 21.7323H151.863ZM152.872 17.3411L153.488 17.6649C154.119 16.4637 154.979 15.5289 156.07 14.8454L155.701 14.2554L155.331 13.6654C154.022 14.4852 152.996 15.6076 152.256 17.0174L152.872 17.3411ZM155.701 14.2554L156.07 14.8454C157.149 14.1699 158.396 13.8241 159.835 13.8241V13.1279V12.4317C158.161 12.4317 156.653 12.8376 155.331 13.6654L155.701 14.2554ZM159.835 13.1279V13.8241C160.838 13.8241 161.669 13.9954 162.349 14.3126L162.644 13.6818L162.938 13.0509C162.035 12.6296 160.994 12.4317 159.835 12.4317V13.1279ZM162.644 13.6818L162.362 14.3184C163.108 14.6488 163.677 15.0269 164.09 15.44L164.582 14.9477L165.074 14.4554C164.512 13.8927 163.788 13.4268 162.925 13.0451L162.644 13.6818ZM164.582 14.9477L164.103 15.4531C164.574 15.8989 164.81 16.2413 164.9 16.4803L165.551 16.2334L166.202 15.9865C166.003 15.4607 165.592 14.946 165.061 14.4423L164.582 14.9477ZM165.551 16.2334H166.247V13.6026H165.551H164.855V16.2334H165.551ZM165.551 13.6026V14.2988H170.536V13.6026V12.9064H165.551V13.6026ZM170.536 13.6026H169.84V29.8423H170.536H171.232V13.6026H170.536ZM170.536 29.8423V29.1461H165.611V29.8423V30.5385H170.536V29.8423ZM156.789 21.7323H156.092C156.092 22.7502 156.322 23.6788 156.801 24.497L157.402 24.1455L158.003 23.7941C157.664 23.2145 157.485 22.5343 157.485 21.7323H156.789ZM157.402 24.1455L156.804 24.502C157.272 25.2878 157.899 25.909 158.68 26.353L159.024 25.7478L159.368 25.1426C158.804 24.8216 158.349 24.3747 158 23.7891L157.402 24.1455ZM159.024 25.7478L158.68 26.353C159.46 26.7964 160.31 27.0176 161.219 27.0176V26.3214V25.6252C160.546 25.6252 159.933 25.4639 159.368 25.1426L159.024 25.7478ZM161.219 26.3214V27.0176C162.161 27.0176 163.025 26.7995 163.789 26.3469L163.435 25.7478L163.08 25.1486C162.553 25.4609 161.939 25.6252 161.219 25.6252V26.3214ZM163.435 25.7478L163.798 26.3415C164.552 25.8798 165.145 25.2468 165.571 24.4558L164.958 24.1258L164.345 23.7957C164.032 24.3762 163.609 24.8245 163.071 25.154L163.435 25.7478ZM164.958 24.1258L165.569 24.46C166.014 23.6463 166.228 22.731 166.228 21.7323H165.531H164.835C164.835 22.5272 164.667 23.2075 164.347 23.7916L164.958 24.1258ZM165.531 21.7323H166.228C166.228 20.734 166.014 19.823 165.566 19.0196L164.958 19.3587L164.35 19.6978C164.667 20.2659 164.835 20.9373 164.835 21.7323H165.531ZM164.958 19.3587L165.573 19.0335C165.148 18.2291 164.556 17.5869 163.798 17.1232L163.435 17.7169L163.071 18.3107C163.606 18.6381 164.029 19.0905 164.342 19.6839L164.958 19.3587ZM163.435 17.7169L163.798 17.1232C163.032 16.6542 162.166 16.4273 161.219 16.4273V17.1235V17.8197C161.935 17.8197 162.545 17.9885 163.071 18.3107L163.435 17.7169ZM161.219 17.1235V16.4273C160.306 16.4273 159.452 16.6574 158.671 17.1169L159.024 17.7169L159.377 18.317C159.941 17.9853 160.55 17.8197 161.219 17.8197V17.1235ZM159.024 17.7169L158.68 17.1117C157.896 17.5575 157.268 18.188 156.801 18.9874L157.402 19.3389L158.003 19.6904C158.353 19.0921 158.807 18.6412 159.368 18.3221L159.024 17.7169ZM157.402 19.3389L156.804 18.9824C156.322 19.7903 156.092 20.7148 156.092 21.7323H156.789H157.485C157.485 20.9301 157.664 20.2589 158 19.6954L157.402 19.3389ZM175.649 29.2093L175.271 29.7937L175.279 29.7986L175.649 29.2093ZM172.92 26.1434L172.296 26.4522L172.3 26.4598L172.92 26.1434ZM172.92 17.3411L172.298 17.0273L172.297 17.0298L172.92 17.3411ZM175.649 14.2554L175.274 13.6691L175.271 13.6711L175.649 14.2554ZM182.632 13.662L182.361 14.3034L182.365 14.3049L182.632 13.662ZM184.689 14.9279L185.168 14.4228L184.689 14.9279ZM185.599 16.2334L184.922 16.3968L186.295 16.2334H185.599ZM185.599 2.62454V1.92835H184.903V2.62454H185.599ZM190.643 2.62454H191.339V1.92835H190.643V2.62454ZM190.643 29.8423V30.5385H191.339V29.8423H190.643ZM185.658 29.8423H184.962V30.5385H185.658V29.8423ZM185.658 27.0137H186.354L185.025 26.7242L185.658 27.0137ZM184.491 28.4774L184.024 27.9618L184.491 28.4774ZM182.414 29.7829L182.692 30.4212L182.414 29.7829ZM183.423 25.7478L183.767 26.353L183.776 26.3478L183.423 25.7478ZM185.006 24.1258L184.4 23.7828L184.398 23.7867L185.006 24.1258ZM185.006 19.3587L184.395 19.6929L184.399 19.6998L184.403 19.7066L185.006 19.3587ZM183.423 17.7169L183.776 17.1169V17.1169L183.423 17.7169ZM179.012 17.7169L179.367 18.3161L179.376 18.3107L179.012 17.7169ZM177.449 19.3389L176.844 18.996L176.841 18.9998L177.449 19.3389ZM177.449 24.1455L176.839 24.4797L176.842 24.4866L176.846 24.4935L177.449 24.1455ZM179.012 25.7478L179.367 25.1486L179.012 25.7478ZM179.724 30.317V29.6208C178.297 29.6208 177.071 29.281 176.02 28.6201L175.649 29.2093L175.279 29.7986C176.576 30.6146 178.065 31.0132 179.724 31.0132V30.317ZM175.649 29.2093L176.028 28.625C174.975 27.9432 174.146 27.0159 173.54 25.827L172.92 26.1434L172.3 26.4598C173.012 27.8555 174.003 28.9721 175.271 29.7936L175.649 29.2093ZM172.92 26.1434L173.544 25.8345C172.951 24.6363 172.647 23.2736 172.647 21.7323H171.951H171.254C171.254 23.4614 171.597 25.0395 172.296 26.4522L172.92 26.1434ZM171.951 21.7323H172.647C172.647 20.1909 172.951 18.836 173.542 17.6525L172.92 17.3411L172.297 17.0298C171.597 18.4308 171.254 20.0034 171.254 21.7323H171.951ZM172.92 17.3411L173.541 17.655C174.148 16.4529 174.977 15.5204 176.028 14.8397L175.649 14.2554L175.271 13.6711C174.001 14.4937 173.01 15.6183 172.298 17.0273L172.92 17.3411ZM175.649 14.2554L176.025 14.8416C177.075 14.1693 178.3 13.8241 179.724 13.8241V13.1279V12.4317C178.063 12.4317 176.571 12.8381 175.274 13.6691L175.649 14.2554ZM179.724 13.1279V13.8241C180.744 13.8241 181.618 13.9898 182.361 14.3034L182.632 13.662L182.903 13.0205C181.958 12.622 180.894 12.4317 179.724 12.4317V13.1279ZM182.632 13.662L182.365 14.3049C183.166 14.6379 183.773 15.0186 184.21 15.433L184.689 14.9279L185.168 14.4228C184.576 13.8614 183.812 13.3981 182.899 13.019L182.632 13.662ZM184.689 14.9279L184.21 15.433C184.694 15.8926 184.878 16.2129 184.922 16.3968L185.599 16.2334L186.276 16.0701C186.135 15.4891 185.712 14.939 185.168 14.4228L184.689 14.9279ZM185.599 16.2334H186.295V2.62454H185.599H184.903V16.2334H185.599ZM185.599 2.62454V3.32074H190.643V2.62454V1.92835H185.599V2.62454ZM190.643 2.62454H189.947V29.8423H190.643H191.339V2.62454H190.643ZM190.643 29.8423V29.1461H185.658V29.8423V30.5385H190.643V29.8423ZM185.658 29.8423H186.354V27.0137H185.658H184.962V29.8423H185.658ZM185.658 27.0137L185.025 26.7242C184.868 27.0677 184.553 27.4817 184.024 27.9618L184.491 28.4774L184.959 28.9931C185.564 28.4446 186.026 27.8828 186.291 27.3031L185.658 27.0137ZM184.491 28.4774L184.024 27.9618C183.521 28.4175 182.896 28.814 182.136 29.1446L182.414 29.7829L182.692 30.4212C183.568 30.0398 184.327 29.566 184.959 28.9931L184.491 28.4774ZM182.414 29.7829L182.136 29.1446C181.414 29.459 180.613 29.6208 179.724 29.6208V30.317V31.0132C180.787 31.0132 181.779 30.8189 182.692 30.4212L182.414 29.7829ZM181.148 26.3214V27.0176C182.102 27.0176 182.98 26.8004 183.767 26.353L183.423 25.7478L183.079 25.1426C182.521 25.46 181.883 25.6252 181.148 25.6252V26.3214ZM183.423 25.7478L183.776 26.3478C184.556 25.889 185.171 25.258 185.614 24.4649L185.006 24.1258L184.398 23.7867C184.075 24.365 183.635 24.8153 183.07 25.1477L183.423 25.7478ZM185.006 24.1258L185.611 24.4687C186.073 23.6534 186.295 22.7349 186.295 21.7323H185.599H184.903C184.903 22.5232 184.729 23.2003 184.4 23.7828L185.006 24.1258ZM185.599 21.7323H186.295C186.295 20.73 186.073 19.8157 185.609 19.0108L185.006 19.3587L184.403 19.7066C184.729 20.2731 184.903 20.9413 184.903 21.7323H185.599ZM185.006 19.3587L185.616 19.0245C185.175 18.2178 184.559 17.5776 183.776 17.1169L183.423 17.7169L183.07 18.317C183.632 18.6475 184.071 19.1018 184.395 19.6929L185.006 19.3587ZM183.423 17.7169L183.776 17.1169C182.988 16.6532 182.106 16.4273 181.148 16.4273V17.1235V17.8197C181.879 17.8197 182.513 17.9895 183.07 18.317L183.423 17.7169ZM181.148 17.1235V16.4273C180.246 16.4273 179.407 16.6587 178.649 17.1232L179.012 17.7169L179.376 18.3107C179.909 17.9839 180.495 17.8197 181.148 17.8197V17.1235ZM179.012 17.7169L178.658 17.1178C177.899 17.5665 177.295 18.1988 176.844 18.996L177.449 19.3389L178.055 19.6819C178.395 19.0812 178.833 18.6322 179.367 18.3161L179.012 17.7169ZM177.449 19.3389L176.841 18.9998C176.393 19.8047 176.18 20.7228 176.18 21.7323H176.876H177.572C177.572 20.9221 177.741 20.2446 178.057 19.678L177.449 19.3389ZM176.876 21.7323H176.18C176.18 22.7423 176.393 23.6646 176.839 24.4797L177.449 24.1455L178.06 23.8114C177.741 23.2287 177.572 22.5422 177.572 21.7323H176.876ZM177.449 24.1455L176.846 24.4935C177.298 25.277 177.903 25.9001 178.658 26.3469L179.012 25.7478L179.367 25.1486C178.829 24.8305 178.392 24.3855 178.052 23.7976L177.449 24.1455ZM179.012 25.7478L178.658 26.3469C179.415 26.7952 180.25 27.0176 181.148 27.0176V26.3214V25.6252C180.49 25.6252 179.901 25.4651 179.367 25.1486L179.012 25.7478ZM195.605 29.2093L195.27 29.8196L195.272 29.821L195.605 29.2093ZM192.44 26.1829L191.841 26.5375L191.842 26.5402L192.44 26.1829ZM192.44 17.3609L193.039 17.7155L193.041 17.7128L192.44 17.3609ZM195.605 14.2752L195.944 14.8829L195.946 14.8818L195.605 14.2752ZM204.842 14.2752L204.495 14.8789L204.5 14.8815L204.842 14.2752ZM207.967 17.3609L207.364 17.7083L207.366 17.7109L207.967 17.3609ZM207.967 26.1829L208.568 26.5356L208.569 26.533L207.967 26.1829ZM204.842 29.2093L205.18 29.8182V29.8182L204.842 29.2093ZM202.389 25.5895L202.751 26.1842L202.755 26.182L202.389 25.5895ZM203.814 24.0269L203.193 23.7107L203.191 23.7155L203.814 24.0269ZM203.814 19.4774L203.188 19.7839L203.193 19.7936L203.814 19.4774ZM202.389 17.895L202.009 18.4781L202.016 18.4829L202.024 18.4875L202.389 17.895ZM198.057 17.895L198.429 18.4839L198.432 18.4818L198.057 17.895ZM196.633 19.4774L197.254 19.7936L196.633 19.4774ZM196.633 24.0269L196.013 24.3431L196.016 24.3481L196.633 24.0269ZM198.057 25.5895L197.686 26.1784L197.694 26.1831L197.701 26.1876L198.057 25.5895ZM200.233 30.317V29.6208C198.608 29.6208 197.182 29.2744 195.937 28.5977L195.605 29.2093L195.272 29.821C196.744 30.6212 198.404 31.0132 200.233 31.0132V30.317ZM195.605 29.2093L195.94 28.599C194.7 27.9183 193.737 26.9954 193.037 25.8256L192.44 26.1829L191.842 26.5402C192.673 27.9287 193.82 29.0234 195.27 29.8196L195.605 29.2093ZM192.44 26.1829L193.039 25.8283C192.344 24.6537 191.989 23.3081 191.989 21.7719H191.293H190.596C190.596 23.5325 191.006 25.1275 191.841 26.5375L192.44 26.1829ZM191.293 21.7719H191.989C191.989 20.2358 192.344 18.8901 193.039 17.7155L192.44 17.3609L191.841 17.0063C191.006 18.4163 190.596 20.0113 190.596 21.7719H191.293ZM192.44 17.3609L193.041 17.7128C193.742 16.5164 194.705 15.5752 195.944 14.8829L195.605 14.2752L195.265 13.6674C193.814 14.4784 192.668 15.5944 191.839 17.009L192.44 17.3609ZM195.605 14.2752L195.946 14.8818C197.189 14.1818 198.612 13.8241 200.233 13.8241V13.1279V12.4317C198.399 12.4317 196.737 12.8388 195.263 13.6685L195.605 14.2752ZM200.233 13.1279V13.8241C201.869 13.8241 203.283 14.1824 204.495 14.8789L204.842 14.2752L205.189 13.6714C203.738 12.8383 202.079 12.4317 200.233 12.4317V13.1279ZM204.842 14.2752L204.5 14.8815C205.725 15.5728 206.676 16.5126 207.364 17.7083L207.967 17.3609L208.571 17.0135C207.756 15.5981 206.623 14.4809 205.184 13.6689L204.842 14.2752ZM207.967 17.3609L207.366 17.7109C208.049 18.8863 208.399 20.2336 208.399 21.7719H209.095H209.791C209.791 20.0135 209.389 18.4201 208.569 17.0109L207.967 17.3609ZM209.095 21.7719H208.399C208.399 23.3103 208.049 24.6575 207.366 25.8329L207.967 26.1829L208.569 26.533C209.389 25.1237 209.791 23.5303 209.791 21.7719H209.095ZM207.967 26.1829L207.367 25.8302C206.68 26.9991 205.731 27.9207 204.505 28.6004L204.842 29.2093L205.18 29.8182C206.617 29.021 207.751 27.925 208.568 26.5356L207.967 26.1829ZM204.842 29.2093L204.505 28.6004C203.29 29.2739 201.873 29.6208 200.233 29.6208V30.317V31.0132C202.075 31.0132 203.731 30.6217 205.18 29.8182L204.842 29.2093ZM200.233 26.1434V26.8396C201.17 26.8396 202.018 26.6304 202.751 26.1842L202.389 25.5895L202.027 24.9948C201.547 25.2871 200.958 25.4472 200.233 25.4472V26.1434ZM202.389 25.5895L202.755 26.182C203.486 25.7307 204.049 25.1119 204.436 24.3382L203.814 24.0269L203.191 23.7155C202.918 24.2606 202.532 24.6835 202.024 24.997L202.389 25.5895ZM203.814 24.0269L204.434 24.3431C204.832 23.5615 205.024 22.6929 205.024 21.7521H204.328H203.632C203.632 22.4993 203.481 23.1471 203.193 23.7107L203.814 24.0269ZM204.328 21.7521H205.024C205.024 20.8114 204.832 19.9427 204.434 19.1612L203.814 19.4774L203.193 19.7936C203.481 20.3571 203.632 21.005 203.632 21.7521H204.328ZM203.814 19.4774L204.439 19.171C204.053 18.384 203.49 17.7559 202.755 17.3025L202.389 17.895L202.024 18.4875C202.528 18.7989 202.915 19.2257 203.188 19.7838L203.814 19.4774ZM202.389 17.895L202.77 17.3118C202.034 16.832 201.179 16.6054 200.233 16.6054V17.3016V17.9978C200.949 17.9978 201.532 18.1667 202.009 18.4781L202.389 17.895ZM200.233 17.3016V16.6054C199.288 16.6054 198.429 16.8321 197.683 17.3081L198.057 17.895L198.432 18.4818C198.926 18.1666 199.518 17.9978 200.233 17.9978V17.3016ZM198.057 17.895L197.686 17.306C196.968 17.7589 196.41 18.3831 196.013 19.1612L196.633 19.4774L197.254 19.7936C197.543 19.2266 197.934 18.7959 198.429 18.4839L198.057 17.895ZM196.633 19.4774L196.013 19.1612C195.615 19.9427 195.423 20.8114 195.423 21.7521H196.119H196.815C196.815 21.005 196.966 20.3571 197.254 19.7936L196.633 19.4774ZM196.119 21.7521H195.423C195.423 22.6929 195.615 23.5615 196.013 24.3431L196.633 24.0269L197.254 23.7107C196.966 23.1471 196.815 22.4993 196.815 21.7521H196.119ZM196.633 24.0269L196.016 24.3481C196.413 25.1128 196.971 25.7277 197.686 26.1784L198.057 25.5895L198.429 25.0006C197.93 24.6864 197.539 24.2597 197.251 23.7057L196.633 24.0269ZM198.057 25.5895L197.701 26.1876C198.444 26.6303 199.296 26.8396 200.233 26.8396V26.1434V25.4472C199.509 25.4472 198.91 25.2872 198.414 24.9914L198.057 25.5895Z" fill="#006EE9"/>
<path d="M211.081 28.5059L210.569 29.0183L211.081 28.5059ZM215.837 23.7294L215.319 24.2364L215.325 24.2418L215.837 23.7294ZM215.837 28.5059L215.325 27.9935L215.32 27.9989L215.837 28.5059ZM213.449 29.4941V28.7695C212.724 28.7695 212.119 28.5184 211.594 27.9935L211.081 28.5059L210.569 29.0183C211.362 29.811 212.334 30.2188 213.449 30.2188V29.4941ZM211.081 28.5059L211.594 27.9935C211.069 27.4685 210.818 26.8628 210.818 26.1382H210.093H209.369C209.369 27.2528 209.776 28.2256 210.569 29.0183L211.081 28.5059ZM210.093 26.1382H210.818C210.818 25.3798 211.073 24.7622 211.594 24.2418L211.081 23.7294L210.569 23.217C209.772 24.0142 209.369 25.0025 209.369 26.1382H210.093ZM211.081 23.7294L211.594 24.2418C212.119 23.7169 212.724 23.4658 213.449 23.4658V22.7412V22.0165C212.334 22.0165 211.362 22.4243 210.569 23.217L211.081 23.7294ZM213.449 22.7412V23.4658C214.207 23.4658 214.815 23.7209 215.32 24.2364L215.837 23.7294L216.355 23.2224C215.57 22.4202 214.585 22.0165 213.449 22.0165V22.7412ZM215.837 23.7294L215.325 24.2418C215.845 24.7622 216.101 25.3798 216.101 26.1382H216.826H217.55C217.55 25.0025 217.147 24.0142 216.35 23.217L215.837 23.7294ZM216.826 26.1382H216.101C216.101 26.8628 215.85 27.4685 215.325 27.9935L215.837 28.5059L216.35 29.0183C217.142 28.2256 217.55 27.2528 217.55 26.1382H216.826ZM215.837 28.5059L215.32 27.9989C214.815 28.5143 214.207 28.7695 213.449 28.7695V29.4941V30.2188C214.585 30.2188 215.57 29.8151 216.355 29.0129L215.837 28.5059Z" fill="#006EE9"/>
<path d="M2.37353 3.30615H8.52943V25.0885H18.3912V30.4827H2.37353V3.30615ZM32.2362 30.4827V27.7444C32.1126 28.0189 31.797 28.417 31.2891 28.9385C30.795 29.4601 30.1362 29.9336 29.3126 30.3591C28.4891 30.7709 27.5283 30.9768 26.4303 30.9768C24.7832 30.9768 23.342 30.5787 22.1067 29.7827C20.8715 28.9729 19.9107 27.8954 19.2244 26.5503C18.5381 25.1915 18.195 23.6885 18.195 22.0415C18.195 20.3944 18.5381 18.8983 19.2244 17.5532C19.9107 16.1944 20.8715 15.1101 22.1067 14.3003C23.342 13.4905 24.7832 13.0856 26.4303 13.0856C27.4871 13.0856 28.4136 13.2571 29.2097 13.6003C30.0058 13.9297 30.6509 14.3277 31.145 14.7944C31.6391 15.2473 31.9823 15.666 32.1744 16.0503V13.5797H38.3921V30.4827H32.2362ZM24.3303 22.0415C24.3303 22.8101 24.5087 23.5032 24.8656 24.1209C25.2224 24.7248 25.696 25.1983 26.2862 25.5415C26.8901 25.8846 27.5558 26.0562 28.2832 26.0562C29.0381 26.0562 29.7038 25.8846 30.2803 25.5415C30.8568 25.1983 31.3097 24.7248 31.6391 24.1209C31.9823 23.5032 32.1538 22.8101 32.1538 22.0415C32.1538 21.2728 31.9823 20.5866 31.6391 19.9826C31.3097 19.365 30.8568 18.8846 30.2803 18.5415C29.7038 18.1846 29.0381 18.0062 28.2832 18.0062C27.5558 18.0062 26.8901 18.1846 26.2862 18.5415C25.696 18.8846 25.2224 19.365 24.8656 19.9826C24.5087 20.5866 24.3303 21.2728 24.3303 22.0415ZM50.7019 13.0856C51.8823 13.0856 53.0353 13.3258 54.1608 13.8062C55.2863 14.2866 56.2127 15.0483 56.9402 16.0915C57.6676 17.1209 58.0314 18.4797 58.0314 20.1679V30.4827H51.7519V21.1974C51.7519 19.9895 51.4637 19.0836 50.8872 18.4797C50.3108 17.8621 49.5559 17.5532 48.6225 17.5532C48.0049 17.5532 47.4215 17.7179 46.8725 18.0473C46.3372 18.363 45.898 18.816 45.5549 19.4062C45.2255 19.9826 45.0607 20.6483 45.0607 21.4032V30.4827H38.8019V13.5797H45.0607V16.0709C45.2255 15.6179 45.5686 15.165 46.0902 14.712C46.6255 14.2454 47.2911 13.8611 48.0872 13.5591C48.897 13.2434 49.7686 13.0856 50.7019 13.0856ZM65.6214 30.9768C63.988 30.9768 62.5674 30.5787 61.3596 29.7827C60.1517 28.9729 59.2115 27.8954 58.539 26.5503C57.8802 25.1915 57.5507 23.6885 57.5507 22.0415C57.5507 20.3944 57.8802 18.8983 58.539 17.5532C59.2115 16.1944 60.1517 15.1101 61.3596 14.3003C62.5674 13.4905 63.988 13.0856 65.6214 13.0856C66.7057 13.0856 67.6665 13.2571 68.5037 13.6003C69.341 13.9297 70.0204 14.3277 70.5419 14.7944C71.0635 15.2473 71.3792 15.666 71.489 16.0503V2.1532H77.7478V30.4827H71.5508V27.7444C71.29 28.2523 70.8645 28.7601 70.2743 29.268C69.6841 29.7621 68.991 30.167 68.1949 30.4827C67.3988 30.8121 66.541 30.9768 65.6214 30.9768ZM67.5361 26.0562C68.291 26.0562 68.9635 25.8846 69.5537 25.5415C70.1576 25.1983 70.6312 24.7248 70.9743 24.1209C71.3174 23.5032 71.489 22.8101 71.489 22.0415C71.489 21.2728 71.3174 20.5866 70.9743 19.9826C70.6312 19.365 70.1576 18.8846 69.5537 18.5415C68.9635 18.1846 68.291 18.0062 67.5361 18.0062C66.8086 18.0062 66.1498 18.1846 65.5596 18.5415C64.9831 18.8846 64.5233 19.365 64.1802 19.9826C63.8508 20.5866 63.6861 21.2728 63.6861 22.0415C63.6861 22.8101 63.8508 23.5032 64.1802 24.1209C64.5233 24.7248 64.9831 25.1983 65.5596 25.5415C66.1498 25.8846 66.8086 26.0562 67.5361 26.0562Z" fill="#09090B"/>
<path d="M2.37353 3.30615V3.14512H2.2125V3.30615H2.37353ZM8.52943 3.30615H8.69046V3.14512H8.52943V3.30615ZM8.52943 25.0885H8.3684V25.2496H8.52943V25.0885ZM18.3912 25.0885H18.5522V24.9275H18.3912V25.0885ZM18.3912 30.4827V30.6437H18.5522V30.4827H18.3912ZM2.37353 30.4827H2.2125V30.6437H2.37353V30.4827ZM2.37353 3.30615V3.46718H8.52943V3.30615V3.14512H2.37353V3.30615ZM8.52943 3.30615H8.3684V25.0885H8.52943H8.69046V3.30615H8.52943ZM8.52943 25.0885V25.2496H18.3912V25.0885V24.9275H8.52943V25.0885ZM18.3912 25.0885H18.2302V30.4827H18.3912H18.5522V25.0885H18.3912ZM18.3912 30.4827V30.3216H2.37353V30.4827V30.6437H18.3912V30.4827ZM2.37353 30.4827H2.53456V3.30615H2.37353H2.2125V30.4827H2.37353ZM32.2362 30.4827H32.0751V30.6437H32.2362V30.4827ZM32.2362 27.7444H32.3972L32.0893 27.6783L32.2362 27.7444ZM31.2891 28.9385L31.1737 28.8262L31.1722 28.8278L31.2891 28.9385ZM29.3126 30.3591L29.3847 30.5032L29.3866 30.5022L29.3126 30.3591ZM22.1067 29.7827L22.0185 29.9173L22.0195 29.918L22.1067 29.7827ZM19.2244 26.5503L19.0807 26.6229L19.0809 26.6235L19.2244 26.5503ZM19.2244 17.5532L19.3678 17.6264L19.3681 17.6258L19.2244 17.5532ZM22.1067 14.3003L22.195 14.435L22.1067 14.3003ZM29.2097 13.6003L29.146 13.7482L29.1481 13.7491L29.2097 13.6003ZM31.145 14.7944L31.0344 14.9115L31.0362 14.9131L31.145 14.7944ZM32.1744 16.0503L32.0304 16.1223L32.3354 16.0503H32.1744ZM32.1744 13.5797V13.4187H32.0134V13.5797H32.1744ZM38.3921 13.5797H38.5531V13.4187H38.3921V13.5797ZM38.3921 30.4827V30.6437H38.5531V30.4827H38.3921ZM24.8656 24.1209L24.7261 24.2015L24.7269 24.2028L24.8656 24.1209ZM26.2862 25.5415L26.2052 25.6807L26.2066 25.6815L26.2862 25.5415ZM30.2803 25.5415L30.1979 25.4031L30.2803 25.5415ZM31.6391 24.1209L31.4983 24.0427L31.4977 24.0438L31.6391 24.1209ZM31.6391 19.9826L31.497 20.0585L31.4991 20.0622L31.6391 19.9826ZM30.2803 18.5415L30.1955 18.6784L30.1979 18.6798L30.2803 18.5415ZM26.2862 18.5415L26.3671 18.6807L26.3681 18.6801L26.2862 18.5415ZM24.8656 19.9826L25.0042 20.0646L25.005 20.0632L24.8656 19.9826ZM32.2362 30.4827H32.3972V27.7444H32.2362H32.0751V30.4827H32.2362ZM32.2362 27.7444L32.0893 27.6783C31.9787 27.9242 31.6819 28.3043 31.1737 28.8262L31.2891 28.9385L31.4045 29.0509C31.912 28.5296 32.2466 28.1137 32.383 27.8105L32.2362 27.7444ZM31.2891 28.9385L31.1722 28.8278C30.6935 29.3331 30.0506 29.7966 29.2387 30.2161L29.3126 30.3591L29.3866 30.5022C30.2217 30.0707 30.8965 29.5871 31.406 29.0493L31.2891 28.9385ZM29.3126 30.3591L29.2406 30.2151C28.4434 30.6137 27.5081 30.8158 26.4303 30.8158V30.9768V31.1378C27.5486 31.1378 28.5349 30.9281 29.3847 30.5032L29.3126 30.3591ZM26.4303 30.9768V30.8158C24.8103 30.8158 23.4002 30.4247 22.194 29.6473L22.1067 29.7827L22.0195 29.918C23.2839 30.7328 24.7561 31.1378 26.4303 31.1378V30.9768ZM22.1067 29.7827L22.195 29.648C20.9837 28.8539 20.0417 27.7979 19.3678 26.4771L19.2244 26.5503L19.0809 26.6235C19.7797 27.993 20.7592 29.0918 22.0185 29.9173L22.1067 29.7827ZM19.2244 26.5503L19.3681 26.4777C18.6941 25.1432 18.356 23.6654 18.356 22.0415H18.195H18.0339C18.0339 23.7116 18.3821 25.2398 19.0807 26.6229L19.2244 26.5503ZM18.195 22.0415H18.356C18.356 20.4175 18.6941 18.9468 19.3678 17.6264L19.2244 17.5532L19.0809 17.48C18.3821 18.8498 18.0339 20.3713 18.0339 22.0415H18.195ZM19.2244 17.5532L19.3681 17.6258C20.0421 16.2914 20.9841 15.2288 22.195 14.435L22.1067 14.3003L22.0185 14.1656C20.7588 14.9914 19.7792 16.0974 19.0807 17.4806L19.2244 17.5532ZM22.1067 14.3003L22.195 14.435C23.4011 13.6443 24.8109 13.2466 26.4303 13.2466V13.0856V12.9245C24.7556 12.9245 23.283 13.3367 22.0185 14.1656L22.1067 14.3003ZM26.4303 13.0856V13.2466C27.4699 13.2466 28.3739 13.4154 29.146 13.7482L29.2097 13.6003L29.2734 13.4524C28.4533 13.0989 27.5044 12.9245 26.4303 12.9245V13.0856ZM29.2097 13.6003L29.1481 13.7491C29.9307 14.0729 30.5578 14.4613 31.0344 14.9115L31.145 14.7944L31.2556 14.6773C30.7439 14.1941 30.0808 13.7865 29.2713 13.4515L29.2097 13.6003ZM31.145 14.7944L31.0362 14.9131C31.523 15.3594 31.8505 15.7626 32.0304 16.1223L32.1744 16.0503L32.3184 15.9783C32.114 15.5694 31.7552 15.1353 31.2538 14.6757L31.145 14.7944ZM32.1744 16.0503H32.3354V13.5797H32.1744H32.0134V16.0503H32.1744ZM32.1744 13.5797V13.7407H38.3921V13.5797V13.4187H32.1744V13.5797ZM38.3921 13.5797H38.231V30.4827H38.3921H38.5531V13.5797H38.3921ZM38.3921 30.4827V30.3216H32.2362V30.4827V30.6437H38.3921V30.4827ZM24.3303 22.0415H24.1693C24.1693 22.8361 24.354 23.5574 24.7261 24.2014L24.8656 24.1209L25.005 24.0403C24.6634 23.4491 24.4913 22.7841 24.4913 22.0415H24.3303ZM24.8656 24.1209L24.7269 24.2028C25.0974 24.8298 25.5905 25.3233 26.2052 25.6807L26.2862 25.5415L26.3671 25.4023C25.8014 25.0734 25.3475 24.6199 25.0042 24.039L24.8656 24.1209ZM26.2862 25.5415L26.2066 25.6815C26.836 26.0391 27.5293 26.2172 28.2832 26.2172V26.0562V25.8952C27.5823 25.8952 26.9442 25.7302 26.3657 25.4015L26.2862 25.5415ZM28.2832 26.0562V26.2172C29.0634 26.2172 29.7583 26.0396 30.3627 25.6799L30.2803 25.5415L30.1979 25.4031C29.6494 25.7296 29.0129 25.8952 28.2832 25.8952V26.0562ZM30.2803 25.5415L30.3627 25.6799C30.9646 25.3216 31.4376 24.8266 31.7805 24.198L31.6391 24.1209L31.4977 24.0438C31.1818 24.623 30.7489 25.0751 30.1979 25.4031L30.2803 25.5415ZM31.6391 24.1209L31.7799 24.1991C32.1375 23.5555 32.3149 22.835 32.3149 22.0415H32.1538H31.9928C31.9928 22.7852 31.827 23.451 31.4984 24.0427L31.6391 24.1209ZM32.1538 22.0415H32.3149C32.3149 21.248 32.1375 20.5338 31.7791 19.9031L31.6391 19.9826L31.4991 20.0622C31.827 20.6394 31.9928 21.2977 31.9928 22.0415H32.1538ZM31.6391 19.9826L31.7812 19.9069C31.4386 19.2645 30.9655 18.7619 30.3627 18.4031L30.2803 18.5415L30.1979 18.6798C30.748 19.0073 31.1808 19.4655 31.497 20.0584L31.6391 19.9826ZM30.2803 18.5415L30.3651 18.4045C29.7603 18.0302 29.0646 17.8451 28.2832 17.8451V18.0062V18.1672C29.0117 18.1672 29.6473 18.339 30.1955 18.6784L30.2803 18.5415ZM28.2832 18.0062V17.8451C27.5281 17.8451 26.8339 18.0308 26.2042 18.4028L26.2862 18.5415L26.3681 18.6801C26.9463 18.3385 27.5835 18.1672 28.2832 18.1672V18.0062ZM26.2862 18.5415L26.2052 18.4023C25.5896 18.7602 25.0964 19.2613 24.7261 19.9021L24.8656 19.9826L25.005 20.0632C25.3485 19.4687 25.8023 19.0091 26.3671 18.6807L26.2862 18.5415ZM24.8656 19.9826L24.7269 19.9007C24.354 20.5318 24.1693 21.2469 24.1693 22.0415H24.3303H24.4913C24.4913 21.2988 24.6634 20.6413 25.0042 20.0646L24.8656 19.9826ZM54.1608 13.8062L54.224 13.6581L54.1608 13.8062ZM56.9402 16.0915L56.8081 16.1836L56.8087 16.1844L56.9402 16.0915ZM58.0314 30.4827V30.6437H58.1924V30.4827H58.0314ZM51.7519 30.4827H51.5909V30.6437H51.7519V30.4827ZM50.8872 18.4797L50.7695 18.5896L50.7707 18.5909L50.8872 18.4797ZM46.8725 18.0473L46.9543 18.1861L46.9554 18.1854L46.8725 18.0473ZM45.5549 19.4062L45.4156 19.3252L45.4151 19.3263L45.5549 19.4062ZM45.0607 30.4827V30.6437H45.2218V30.4827H45.0607ZM38.8019 30.4827H38.6409V30.6437H38.8019V30.4827ZM38.8019 13.5797V13.4187H38.6409V13.5797H38.8019ZM45.0607 13.5797H45.2218V13.4187H45.0607V13.5797ZM45.0607 16.0709H44.8997L45.2121 16.1259L45.0607 16.0709ZM46.0902 14.712L46.1957 14.8336L46.196 14.8334L46.0902 14.712ZM48.0872 13.5591L48.1443 13.7097L48.1457 13.7091L48.0872 13.5591ZM50.7019 13.0856V13.2466C51.8598 13.2466 52.9913 13.4821 54.0975 13.9543L54.1608 13.8062L54.224 13.6581C53.0792 13.1695 51.9049 12.9245 50.7019 12.9245V13.0856ZM54.1608 13.8062L54.0975 13.9543C55.1942 14.4223 56.0972 15.1642 56.8081 16.1836L56.9402 16.0915L57.0723 15.9994C56.3283 14.9325 55.3783 14.1508 54.224 13.6581L54.1608 13.8062ZM56.9402 16.0915L56.8087 16.1844C57.5114 17.1788 57.8703 18.5019 57.8703 20.1679H58.0314H58.1924C58.1924 18.4575 57.8239 17.063 57.0717 15.9985L56.9402 16.0915ZM58.0314 20.1679H57.8703V30.4827H58.0314H58.1924V20.1679H58.0314ZM58.0314 30.4827V30.3216H51.7519V30.4827V30.6437H58.0314V30.4827ZM51.7519 30.4827H51.913V21.1974H51.7519H51.5909V30.4827H51.7519ZM51.7519 21.1974H51.913C51.913 19.9665 51.6194 19.0135 51.0037 18.3685L50.8872 18.4797L50.7707 18.5909C51.308 19.1538 51.5909 20.0125 51.5909 21.1974H51.7519ZM50.8872 18.4797L51.0049 18.3698C50.3947 17.7159 49.5953 17.3922 48.6225 17.3922V17.5532V17.7143C49.5164 17.7143 50.2269 18.0082 50.7695 18.5896L50.8872 18.4797ZM48.6225 17.5532V17.3922C47.9746 17.3922 47.3628 17.5654 46.7897 17.9093L46.8725 18.0473L46.9554 18.1854C47.4803 17.8705 48.0352 17.7143 48.6225 17.7143V17.5532ZM46.8725 18.0473L46.7907 17.9086C46.2294 18.2397 45.7713 18.7136 45.4156 19.3252L45.5549 19.4062L45.6941 19.4871C46.0247 18.9184 46.4451 18.4864 46.9543 18.1861L46.8725 18.0473ZM45.5549 19.4062L45.4151 19.3263C45.0699 19.9303 44.8997 20.6242 44.8997 21.4032H45.0607H45.2218C45.2218 20.6725 45.381 20.035 45.6947 19.4861L45.5549 19.4062ZM45.0607 21.4032H44.8997V30.4827H45.0607H45.2218V21.4032H45.0607ZM45.0607 30.4827V30.3216H38.8019V30.4827V30.6437H45.0607V30.4827ZM38.8019 30.4827H38.9629V13.5797H38.8019H38.6409V30.4827H38.8019ZM38.8019 13.5797V13.7407H45.0607V13.5797V13.4187H38.8019V13.5797ZM45.0607 13.5797H44.8997V16.0709H45.0607H45.2218V13.5797H45.0607ZM45.0607 16.0709L45.2121 16.1259C45.3643 15.7074 45.6864 15.2759 46.1957 14.8336L46.0902 14.712L45.9846 14.5905C45.4507 15.054 45.0866 15.5284 44.9094 16.0158L45.0607 16.0709ZM46.0902 14.712L46.196 14.8334C46.7143 14.3815 47.3626 14.0062 48.1443 13.7097L48.0872 13.5591L48.0301 13.4085C47.2196 13.716 46.5366 14.1092 45.9843 14.5907L46.0902 14.712ZM48.0872 13.5591L48.1457 13.7091C48.9355 13.4012 49.7871 13.2466 50.7019 13.2466V13.0856V12.9245C49.7501 12.9245 48.8585 13.0856 48.0287 13.4091L48.0872 13.5591ZM61.3596 29.7827L61.2699 29.9164L61.271 29.9171L61.3596 29.7827ZM58.539 26.5503L58.3941 26.6206L58.395 26.6223L58.539 26.5503ZM58.539 17.5532L58.3947 17.4818L58.3944 17.4824L58.539 17.5532ZM61.3596 14.3003L61.4493 14.434L61.3596 14.3003ZM68.5037 13.6003L68.4426 13.7493L68.4447 13.7501L68.5037 13.6003ZM70.5419 14.7944L70.4346 14.9144L70.4364 14.916L70.5419 14.7944ZM71.489 16.0503L71.3342 16.0945L71.65 16.0503H71.489ZM71.489 2.1532V1.99217H71.328V2.1532H71.489ZM77.7478 2.1532H77.9089V1.99217H77.7478V2.1532ZM77.7478 30.4827V30.6437H77.9089V30.4827H77.7478ZM71.5508 30.4827H71.3897V30.6437H71.5508V30.4827ZM71.5508 27.7444H71.7118L71.4075 27.6709L71.5508 27.7444ZM70.2743 29.268L70.3777 29.3914L70.3793 29.39L70.2743 29.268ZM68.1949 30.4827L68.1355 30.333L68.1333 30.3339L68.1949 30.4827ZM69.5537 25.5415L69.4742 25.4015L69.4728 25.4023L69.5537 25.5415ZM70.9743 24.1209L71.1143 24.2004L71.1151 24.1991L70.9743 24.1209ZM70.9743 19.9826L70.8335 20.0609L70.8343 20.0622L70.9743 19.9826ZM69.5537 18.5415L69.4704 18.6793L69.4742 18.6815L69.5537 18.5415ZM65.5596 18.5415L65.642 18.6798L65.6429 18.6793L65.5596 18.5415ZM64.1802 19.9826L64.0394 19.9044L64.0388 19.9055L64.1802 19.9826ZM64.1802 24.1209L64.038 24.1967L64.0402 24.2004L64.1802 24.1209ZM65.5596 25.5415L65.4772 25.6799L65.4786 25.6807L65.5596 25.5415ZM65.6214 30.9768V30.8158C64.0153 30.8158 62.6264 30.4248 61.4482 29.6482L61.3596 29.7827L61.271 29.9171C62.5084 30.7327 63.9607 31.1378 65.6214 31.1378V30.9768ZM61.3596 29.7827L61.4493 29.6489C60.2654 28.8552 59.3435 27.7993 58.683 26.4783L58.539 26.5503L58.395 26.6223C59.0795 27.9915 60.0381 29.0905 61.2699 29.9164L61.3596 29.7827ZM58.539 26.5503L58.6839 26.4801C58.0366 25.1451 57.7118 23.6664 57.7118 22.0415H57.5507H57.3897C57.3897 23.7106 57.7237 25.2379 58.3941 26.6206L58.539 26.5503ZM57.5507 22.0415H57.7118C57.7118 20.4165 58.0366 18.945 58.6836 17.6241L58.539 17.5532L58.3944 17.4824C57.7237 18.8517 57.3897 20.3723 57.3897 22.0415H57.5507ZM58.539 17.5532L58.6833 17.6247C59.3439 16.2899 60.2658 15.2275 61.4493 14.434L61.3596 14.3003L61.2699 14.1665C60.0377 14.9927 59.0791 16.0989 58.3947 17.4818L58.539 17.5532ZM61.3596 14.3003L61.4493 14.434C62.6274 13.6442 64.0159 13.2466 65.6214 13.2466V13.0856V12.9245C63.9602 12.9245 62.5075 13.3368 61.2699 14.1665L61.3596 14.3003ZM65.6214 13.0856V13.2466C66.6888 13.2466 67.6282 13.4155 68.4426 13.7493L68.5037 13.6003L68.5648 13.4513C67.7047 13.0988 66.7225 12.9245 65.6214 12.9245V13.0856ZM68.5037 13.6003L68.4447 13.7501C69.2691 14.0744 69.9307 14.4635 70.4346 14.9144L70.5419 14.7944L70.6493 14.6744C70.1101 14.1919 69.4129 13.7849 68.5627 13.4504L68.5037 13.6003ZM70.5419 14.7944L70.4364 14.916C70.9495 15.3616 71.2372 15.755 71.3342 16.0945L71.489 16.0503L71.6438 16.006C71.5212 15.577 71.1775 15.1331 70.6475 14.6728L70.5419 14.7944ZM71.489 16.0503H71.65V2.1532H71.489H71.328V16.0503H71.489ZM71.489 2.1532V2.31423H77.7478V2.1532V1.99217H71.489V2.1532ZM77.7478 2.1532H77.5868V30.4827H77.7478H77.9089V2.1532H77.7478ZM77.7478 30.4827V30.3216H71.5508V30.4827V30.6437H77.7478V30.4827ZM71.5508 30.4827H71.7118V27.7444H71.5508H71.3897V30.4827H71.5508ZM71.5508 27.7444L71.4075 27.6709C71.159 28.1548 70.7491 28.647 70.1693 29.1459L70.2743 29.268L70.3793 29.39C70.9799 28.8732 71.421 28.3497 71.694 27.818L71.5508 27.7444ZM70.2743 29.268L70.1709 29.1445C69.5953 29.6264 68.9174 30.0229 68.1355 30.333L68.1949 30.4827L68.2542 30.6324C69.0645 30.311 69.7729 29.8977 70.3777 29.3914L70.2743 29.268ZM68.1949 30.4827L68.1333 30.3339C67.358 30.6547 66.5213 30.8158 65.6214 30.8158V30.9768V31.1378C66.5606 31.1378 67.4396 30.9695 68.2565 30.6315L68.1949 30.4827ZM67.5361 26.0562V26.2172C68.3163 26.2172 69.0173 26.0396 69.6346 25.6807L69.5537 25.5415L69.4728 25.4023C68.9097 25.7296 68.2656 25.8952 67.5361 25.8952V26.0562ZM69.5537 25.5415L69.6333 25.6815C70.2624 25.324 70.7568 24.8296 71.1143 24.2004L70.9743 24.1209L70.8343 24.0413C70.5055 24.62 70.0528 25.0727 69.4742 25.4015L69.5537 25.5415ZM70.9743 24.1209L71.1151 24.1991C71.4726 23.5555 71.65 22.835 71.65 22.0415H71.489H71.328C71.328 22.7852 71.1622 23.451 70.8335 24.0427L70.9743 24.1209ZM71.489 22.0415H71.65C71.65 21.248 71.4727 20.5338 71.1143 19.9031L70.9743 19.9826L70.8343 20.0622C71.1622 20.6394 71.328 21.2977 71.328 22.0415H71.489ZM70.9743 19.9826L71.1151 19.9044C70.7578 19.2614 70.2633 18.7595 69.6333 18.4015L69.5537 18.5415L69.4742 18.6815C70.0519 19.0098 70.5045 19.4686 70.8335 20.0609L70.9743 19.9826ZM69.5537 18.5415L69.637 18.4037C69.0194 18.0302 68.3175 17.8451 67.5361 17.8451V18.0062V18.1672C68.2645 18.1672 68.9077 18.339 69.4704 18.6793L69.5537 18.5415ZM67.5361 18.0062V17.8451C66.7809 17.8451 66.093 18.0308 65.4763 18.4037L65.5596 18.5415L65.6429 18.6793C66.2066 18.3384 66.8363 18.1672 67.5361 18.1672V18.0062ZM65.5596 18.5415L65.4772 18.4031C64.875 18.7616 64.3956 19.2633 64.0394 19.9044L64.1802 19.9826L64.3209 20.0609C64.651 19.4667 65.0912 19.0076 65.642 18.6798L65.5596 18.5415ZM64.1802 19.9826L64.0388 19.9055C63.695 20.5358 63.525 21.2491 63.525 22.0415H63.6861H63.8471C63.8471 21.2966 64.0065 20.6374 64.3215 20.0598L64.1802 19.9826ZM63.6861 22.0415H63.525C63.525 22.8339 63.695 23.5535 64.0381 24.1967L64.1802 24.1209L64.3223 24.0451C64.0065 23.453 63.8471 22.7863 63.8471 22.0415H63.6861ZM64.1802 24.1209L64.0402 24.2004C64.3966 24.8277 64.8759 25.3219 65.4772 25.6799L65.5596 25.5415L65.642 25.4031C65.0903 25.0748 64.65 24.6219 64.3202 24.0413L64.1802 24.1209ZM65.5596 25.5415L65.4786 25.6807C66.095 26.0391 66.7821 26.2172 67.5361 26.2172V26.0562V25.8952C66.8351 25.8952 66.2045 25.7302 65.6405 25.4023L65.5596 25.5415Z" fill="#09090B"/>
</svg>
