<svg width="35" height="35" viewBox="0 0 35 35" fill="none" xmlns="http://www.w3.org/2000/svg">
<ellipse cx="17.316" cy="17.5" rx="17.316" ry="17.3344" fill="#1C7ED6"/>
<path d="M14.7449 25.3794C14.5403 25.3794 14.3273 25.3531 14.1057 25.3006C13.8841 25.2656 13.637 25.1868 13.3643 25.0642C13.0234 24.9241 12.7762 24.6877 12.6228 24.3551C12.4694 24.0049 12.3927 23.5846 12.3927 23.0944C12.3927 22.6566 12.4439 22.1751 12.5461 21.6498C12.6654 21.1246 12.8103 20.5818 12.9808 20.0215C12.6399 19.9864 12.316 19.9077 12.0092 19.7851C11.8729 19.7326 11.8047 19.6538 11.8047 19.5487C11.8047 19.4437 11.8643 19.3473 11.9837 19.2598C12.12 19.1547 12.2734 19.1372 12.4439 19.2073C12.6825 19.2948 12.9296 19.3561 13.1853 19.3911C13.458 18.5682 13.7733 17.754 14.1313 16.9485C14.4892 16.1256 14.8471 15.3552 15.2051 14.6373C15.58 13.9019 15.9124 13.2716 16.2022 12.7463C16.4919 12.2035 16.705 11.8095 16.8413 11.5644C17.1652 11.0041 17.4464 10.5926 17.685 10.33C17.9237 10.0673 18.2049 9.89223 18.5287 9.80468C18.8526 9.69963 19.2872 9.63834 19.8326 9.62083C20.2076 9.62083 20.6252 9.69087 21.0854 9.83095C21.5286 9.97102 21.9291 10.1899 22.287 10.4876C22.645 10.7852 22.8239 11.1442 22.8239 11.5644C22.8239 12.1947 22.6535 12.8688 22.3126 13.5867C21.9717 14.3046 21.503 15.0138 20.9064 15.7141C20.3269 16.4145 19.6622 17.0711 18.9122 17.6839C18.1793 18.2793 17.4123 18.7783 16.6112 19.181C16.3044 19.8639 16.0147 20.5467 15.742 21.2296C15.4863 21.9125 15.2732 22.5078 15.1028 23.0156C15.5119 22.9631 15.9806 22.9193 16.509 22.8843C17.0544 22.8317 17.6083 22.8055 18.1708 22.8055C18.8185 22.8055 19.4321 22.8492 20.0116 22.9368C20.6082 23.0243 21.0854 23.1819 21.4433 23.4095C21.8183 23.6197 22.0058 23.9348 22.0058 24.3551C22.0058 24.4776 21.9973 24.6177 21.9802 24.7753C21.9632 24.9329 21.9547 25.0642 21.9547 25.1692V25.2218C21.9547 25.3093 21.8695 25.3181 21.699 25.248C21.5286 25.178 21.2985 25.0905 21.0087 24.9854C20.719 24.8628 20.3866 24.8016 20.0116 24.8016C19.5855 24.8016 19.1253 24.8191 18.631 24.8541C18.1538 24.8891 17.668 24.9329 17.1737 24.9854C16.6453 25.0554 16.2022 25.143 15.8442 25.248C15.4863 25.3356 15.1198 25.3794 14.7449 25.3794ZM17.1481 17.9466C17.9663 17.3162 18.6992 16.5809 19.3469 15.7404C20.0116 14.8999 20.5229 14.1383 20.8809 13.4554C21.0684 13.0702 21.2047 12.7113 21.2899 12.3786C21.3922 12.0459 21.4433 11.7657 21.4433 11.5381C21.4433 11.1354 21.3411 10.934 21.1365 10.934C20.9831 10.934 20.7786 11.1091 20.5229 11.4593C20.2673 11.792 19.986 12.2385 19.6792 12.7988C19.3895 13.3416 19.0912 13.9194 18.7844 14.5322C18.4946 15.1276 18.2219 15.7054 17.9663 16.2657C17.7106 16.8085 17.4975 17.2462 17.3271 17.5789L17.1481 17.9466Z" fill="#F3F5FF"/>
</svg>
